<?xml version="1.0" encoding="UTF-8" standalone="no"?>
<!-- Created with Inkscape (http://www.inkscape.org/) -->

<svg
   xmlns:dc="http://purl.org/dc/elements/1.1/"
   xmlns:cc="http://creativecommons.org/ns#"
   xmlns:rdf="http://www.w3.org/1999/02/22-rdf-syntax-ns#"
   xmlns:svg="http://www.w3.org/2000/svg"
   xmlns="http://www.w3.org/2000/svg"
   xmlns:sodipodi="http://sodipodi.sourceforge.net/DTD/sodipodi-0.dtd"
   xmlns:inkscape="http://www.inkscape.org/namespaces/inkscape"
   width="32"
   height="32"
   viewBox="0 0 8.4666665 8.4666669"
   version="1.1"
   id="svg8"
   inkscape:version="0.92.4 5da689c313, 2019-01-14"
   sodipodi:docname="backspace.svg">
  <defs
     id="defs2" />
  <sodipodi:namedview
     id="base"
     pagecolor="#ffffff"
     bordercolor="#666666"
     borderopacity="1.0"
     inkscape:pageopacity="0.0"
     inkscape:pageshadow="2"
     inkscape:zoom="15.839192"
     inkscape:cx="18.202844"
     inkscape:cy="13.237542"
     inkscape:document-units="mm"
     inkscape:current-layer="layer1"
     showgrid="true"
     units="px"
     inkscape:window-width="1920"
     inkscape:window-height="1046"
     inkscape:window-x="0"
     inkscape:window-y="0"
     inkscape:window-maximized="1"
     borderlayer="true">
    <inkscape:grid
       type="xygrid"
       id="grid815"
       empspacing="4" />
    <inkscape:grid
       type="xygrid"
       id="grid817"
       empspacing="1"
       originy="0.13229167"
       originx="0.13229167"
       dotted="true" />
  </sodipodi:namedview>
  <metadata
     id="metadata5">
    <rdf:RDF>
      <cc:Work
         rdf:about="">
        <dc:format>image/svg+xml</dc:format>
        <dc:type
           rdf:resource="http://purl.org/dc/dcmitype/StillImage" />
        <dc:title></dc:title>
      </cc:Work>
    </rdf:RDF>
  </metadata>
  <g
     inkscape:label="Layer 1"
     inkscape:groupmode="layer"
     id="layer1"
     transform="translate(0,-288.53332)">
    <path
       style="fill:#000000;fill-opacity:1;stroke:none;stroke-width:1.00157475;stroke-linecap:round;stroke-linejoin:round;stroke-miterlimit:4;stroke-dasharray:none;stroke-opacity:1"
       d="M 11.449219 8.0019531 A 0.50083743 0.50083743 0 0 0 11.132812 8.15625 L 4.1347656 15.65625 A 0.50083743 0.50083743 0 0 0 4.1347656 16.34375 L 11.132812 23.84375 A 0.50083743 0.50083743 0 0 0 11.501953 23.998047 L 27.498047 23.998047 A 0.50083743 0.50083743 0 0 0 28 23.503906 L 28 8.5039062 A 0.50083743 0.50083743 0 0 0 27.498047 8.0019531 L 11.501953 8.0019531 A 0.50083743 0.50083743 0 0 0 11.449219 8.0019531 z M 16.492188 11.992188 A 0.50083743 0.50083743 0 0 1 16.853516 12.142578 L 19.998047 15.291016 L 23.142578 12.142578 A 0.50083743 0.50083743 0 0 1 23.4375 11.996094 A 0.50083743 0.50083743 0 0 1 23.851562 12.851562 L 20.707031 16 L 23.851562 19.148438 A 0.50132739 0.50132739 0 1 1 23.142578 19.857422 L 19.998047 16.708984 L 16.853516 19.857422 A 0.50132774 0.50132774 0 1 1 16.144531 19.148438 L 19.289062 16 L 16.144531 12.851562 A 0.50083743 0.50083743 0 0 1 16.447266 11.996094 L 16.447266 11.994141 A 0.50083743 0.50083743 0 0 1 16.492188 11.992188 z "
       transform="matrix(0.26458333,0,0,0.26458333,0,288.53332)"
       id="path2435" />
  </g>
</svg>
