<?xml version="1.0" encoding="UTF-8" standalone="no"?>
<!-- Created with Inkscape (http://www.inkscape.org/) -->

<svg
   xmlns:dc="http://purl.org/dc/elements/1.1/"
   xmlns:cc="http://creativecommons.org/ns#"
   xmlns:rdf="http://www.w3.org/1999/02/22-rdf-syntax-ns#"
   xmlns:svg="http://www.w3.org/2000/svg"
   xmlns="http://www.w3.org/2000/svg"
   xmlns:sodipodi="http://sodipodi.sourceforge.net/DTD/sodipodi-0.dtd"
   xmlns:inkscape="http://www.inkscape.org/namespaces/inkscape"
   width="32"
   height="32"
   viewBox="0 0 8.4666665 8.4666669"
   version="1.1"
   id="svg8"
   inkscape:version="0.92.4 5da689c313, 2019-01-14"
   sodipodi:docname="btnA.svg">
  <defs
     id="defs2" />
  <sodipodi:namedview
     id="base"
     pagecolor="#ffffff"
     bordercolor="#666666"
     borderopacity="1.0"
     inkscape:pageopacity="0.0"
     inkscape:pageshadow="2"
     inkscape:zoom="15.839192"
     inkscape:cx="11.256643"
     inkscape:cy="14.484978"
     inkscape:document-units="mm"
     inkscape:current-layer="layer1"
     showgrid="true"
     units="px"
     inkscape:window-width="1920"
     inkscape:window-height="1046"
     inkscape:window-x="0"
     inkscape:window-y="0"
     inkscape:window-maximized="1">
    <inkscape:grid
       type="xygrid"
       id="grid815"
       empspacing="4" />
    <inkscape:grid
       type="xygrid"
       id="grid817"
       empspacing="1"
       originy="0.13229167"
       originx="0.13229167"
       dotted="true" />
  </sodipodi:namedview>
  <metadata
     id="metadata5">
    <rdf:RDF>
      <cc:Work
         rdf:about="">
        <dc:format>image/svg+xml</dc:format>
        <dc:type
           rdf:resource="http://purl.org/dc/dcmitype/StillImage" />
        <dc:title></dc:title>
      </cc:Work>
    </rdf:RDF>
  </metadata>
  <g
     inkscape:label="Layer 1"
     inkscape:groupmode="layer"
     id="layer1"
     transform="translate(0,-288.53332)">
    <path
       style="opacity:1;fill:#000000;fill-opacity:1;stroke:none;stroke-width:1.00157475;stroke-linecap:round;stroke-linejoin:round;stroke-miterlimit:4;stroke-dasharray:none;stroke-dashoffset:0;stroke-opacity:1;paint-order:normal"
       d="M 16 0 A 15.999999 15.999999 0 0 0 0 16 A 15.999999 15.999999 0 0 0 16 32 A 15.999999 15.999999 0 0 0 32 16 A 15.999999 15.999999 0 0 0 16 0 z M 15.269531 7.328125 L 16.755859 7.328125 C 17.284445 7.328125 17.656356 7.6013804 17.871094 8.1464844 L 23.916016 23.779297 C 23.982089 23.927962 24.015625 24.044362 24.015625 24.126953 C 24.015625 24.275618 23.957425 24.407809 23.841797 24.523438 C 23.742687 24.622547 23.619368 24.671875 23.470703 24.671875 L 22.552734 24.671875 C 22.057185 24.671875 21.736555 24.465692 21.587891 24.052734 L 20.298828 20.757812 L 11.701172 20.757812 L 10.412109 24.052734 C 10.263445 24.465692 9.9428147 24.671875 9.4472656 24.671875 L 8.5292969 24.671875 C 8.3806322 24.671875 8.2484406 24.622547 8.1328125 24.523438 C 8.0337027 24.407809 7.984375 24.275618 7.984375 24.126953 C 7.984375 24.044362 8.0179112 23.927962 8.0839844 23.779297 L 14.154297 8.1464844 C 14.369035 7.6013804 14.740946 7.328125 15.269531 7.328125 z M 16.011719 9.6816406 L 12.568359 18.527344 L 19.431641 18.527344 L 16.011719 9.6816406 z "
       transform="matrix(0.26458333,0,0,0.26458333,0,288.53332)"
       id="path819" />
  </g>
</svg>
