<?xml version="1.0" encoding="UTF-8" standalone="no"?>
<!-- Created with Inkscape (http://www.inkscape.org/) -->

<svg
   xmlns:dc="http://purl.org/dc/elements/1.1/"
   xmlns:cc="http://creativecommons.org/ns#"
   xmlns:rdf="http://www.w3.org/1999/02/22-rdf-syntax-ns#"
   xmlns:svg="http://www.w3.org/2000/svg"
   xmlns="http://www.w3.org/2000/svg"
   xmlns:sodipodi="http://sodipodi.sourceforge.net/DTD/sodipodi-0.dtd"
   xmlns:inkscape="http://www.inkscape.org/namespaces/inkscape"
   width="32"
   height="32"
   viewBox="0 0 8.4666665 8.4666669"
   version="1.1"
   id="svg8"
   inkscape:version="0.92.4 5da689c313, 2019-01-14"
   sodipodi:docname="btnB.svg">
  <defs
     id="defs2" />
  <sodipodi:namedview
     id="base"
     pagecolor="#ffffff"
     bordercolor="#666666"
     borderopacity="1.0"
     inkscape:pageopacity="0.0"
     inkscape:pageshadow="2"
     inkscape:zoom="15.839192"
     inkscape:cx="11.256643"
     inkscape:cy="14.484978"
     inkscape:document-units="mm"
     inkscape:current-layer="layer1"
     showgrid="true"
     units="px"
     inkscape:window-width="1920"
     inkscape:window-height="1046"
     inkscape:window-x="0"
     inkscape:window-y="0"
     inkscape:window-maximized="1">
    <inkscape:grid
       type="xygrid"
       id="grid815"
       empspacing="4" />
    <inkscape:grid
       type="xygrid"
       id="grid817"
       empspacing="1"
       originy="0.13229167"
       originx="0.13229167"
       dotted="true" />
  </sodipodi:namedview>
  <metadata
     id="metadata5">
    <rdf:RDF>
      <cc:Work
         rdf:about="">
        <dc:format>image/svg+xml</dc:format>
        <dc:type
           rdf:resource="http://purl.org/dc/dcmitype/StillImage" />
        <dc:title></dc:title>
      </cc:Work>
    </rdf:RDF>
  </metadata>
  <g
     inkscape:label="Layer 1"
     inkscape:groupmode="layer"
     id="layer1"
     transform="translate(0,-288.53332)">
    <path
       style="opacity:1;fill:#000000;fill-opacity:1;stroke:none;stroke-width:1.00157475;stroke-linecap:round;stroke-linejoin:round;stroke-miterlimit:4;stroke-dasharray:none;stroke-dashoffset:0;stroke-opacity:1;paint-order:normal"
       d="M 16 0 A 15.999999 15.999999 0 0 0 0 16 A 15.999999 15.999999 0 0 0 16 32 A 15.999999 15.999999 0 0 0 32 16 A 15.999999 15.999999 0 0 0 16 0 z M 10.548828 7.328125 L 17.189453 7.328125 C 18.494399 7.328125 19.551931 7.5836358 20.361328 8.0957031 C 21.170725 8.5912522 21.748819 9.1940099 22.095703 9.9042969 C 22.442587 10.614584 22.615234 11.309078 22.615234 11.986328 C 22.615234 12.911353 22.39326 13.662094 21.947266 14.240234 C 21.501271 14.801857 21.062288 15.216176 20.632812 15.480469 C 21.326581 15.942981 21.888884 16.536867 22.318359 17.263672 C 22.764354 17.973959 22.986328 18.767108 22.986328 19.642578 C 22.986328 20.50153 22.773226 21.319343 22.34375 22.095703 C 21.930792 22.855545 21.31029 23.474094 20.484375 23.953125 C 19.65846 24.432156 18.676872 24.671875 17.537109 24.671875 L 10.548828 24.671875 C 10.367127 24.671875 10.210271 24.606756 10.078125 24.474609 C 9.9459786 24.342463 9.8808594 24.185608 9.8808594 24.003906 L 9.8808594 7.9960938 C 9.8808594 7.8143924 9.9459786 7.657537 10.078125 7.5253906 C 10.210271 7.3932442 10.367127 7.328125 10.548828 7.328125 z M 12.234375 9.5585938 L 12.234375 14.5625 L 16.941406 14.5625 C 18.031614 14.5625 18.8583 14.347445 19.419922 13.917969 C 19.981544 13.488493 20.261719 12.869944 20.261719 12.060547 C 20.261719 11.25115 19.981544 10.630648 19.419922 10.201172 C 18.8583 9.771696 18.031614 9.5585938 16.941406 9.5585938 L 12.234375 9.5585938 z M 12.234375 16.792969 L 12.234375 22.441406 L 17.289062 22.441406 C 18.346234 22.441406 19.164047 22.177023 19.742188 21.648438 C 20.336846 21.103334 20.632812 20.435457 20.632812 19.642578 C 20.632812 18.833181 20.352638 18.156432 19.791016 17.611328 C 19.229393 17.066224 18.395789 16.792969 17.289062 16.792969 L 12.234375 16.792969 z "
       transform="matrix(0.26458333,0,0,0.26458333,0,288.53332)"
       id="path819" />
  </g>
</svg>
