<?xml version="1.0" encoding="UTF-8" standalone="no"?>
<!-- Created with Inkscape (http://www.inkscape.org/) -->

<svg
   xmlns:dc="http://purl.org/dc/elements/1.1/"
   xmlns:cc="http://creativecommons.org/ns#"
   xmlns:rdf="http://www.w3.org/1999/02/22-rdf-syntax-ns#"
   xmlns:svg="http://www.w3.org/2000/svg"
   xmlns="http://www.w3.org/2000/svg"
   xmlns:sodipodi="http://sodipodi.sourceforge.net/DTD/sodipodi-0.dtd"
   xmlns:inkscape="http://www.inkscape.org/namespaces/inkscape"
   width="32"
   height="32"
   viewBox="0 0 8.4666665 8.4666669"
   version="1.1"
   id="svg8"
   inkscape:version="0.92.4 5da689c313, 2019-01-14"
   sodipodi:docname="btnL2.svg">
  <defs
     id="defs2" />
  <sodipodi:namedview
     id="base"
     pagecolor="#ffffff"
     bordercolor="#666666"
     borderopacity="1.0"
     inkscape:pageopacity="0.0"
     inkscape:pageshadow="2"
     inkscape:zoom="15.839192"
     inkscape:cx="11.162695"
     inkscape:cy="14.50931"
     inkscape:document-units="mm"
     inkscape:current-layer="layer1"
     showgrid="true"
     units="px"
     inkscape:window-width="1920"
     inkscape:window-height="1046"
     inkscape:window-x="0"
     inkscape:window-y="0"
     inkscape:window-maximized="1">
    <inkscape:grid
       type="xygrid"
       id="grid815"
       empspacing="4" />
    <inkscape:grid
       type="xygrid"
       id="grid817"
       empspacing="1"
       originy="0.13229167"
       originx="0.13229167"
       dotted="true" />
  </sodipodi:namedview>
  <metadata
     id="metadata5">
    <rdf:RDF>
      <cc:Work
         rdf:about="">
        <dc:format>image/svg+xml</dc:format>
        <dc:type
           rdf:resource="http://purl.org/dc/dcmitype/StillImage" />
        <dc:title></dc:title>
      </cc:Work>
    </rdf:RDF>
  </metadata>
  <g
     inkscape:label="Layer 1"
     inkscape:groupmode="layer"
     id="layer1"
     transform="translate(0,-288.53332)">
    <path
       style="opacity:1;fill:#000000;fill-opacity:1;stroke:none;stroke-width:0.99999994;stroke-linecap:round;stroke-linejoin:round;stroke-miterlimit:4;stroke-dasharray:none;stroke-dashoffset:0;stroke-opacity:1;paint-order:normal"
       d="M 1 4 C 0.44601937 4 0 4.4460194 0 5 L 0 27 C 7.4014868e-17 27.553981 0.44601937 28 1 28 L 31 28 C 31.553981 28 32 27.553981 32 27 L 32 5 C 32 4.4460194 31.553981 4 31 4 L 1 4 z M 20.818359 9.7832031 C 21.63588 9.7832031 22.332484 9.9492862 22.908203 10.283203 C 23.495436 10.605606 23.938907 11.049077 24.238281 11.613281 C 24.537655 12.165971 24.6875 12.787653 24.6875 13.478516 C 24.6875 14.203921 24.56191 14.825603 24.308594 15.34375 C 24.066792 15.850383 23.645623 16.368776 23.046875 16.898438 L 19.195312 20.490234 L 24.480469 20.490234 C 24.607127 20.490234 24.716479 20.536791 24.808594 20.628906 C 24.900709 20.721021 24.947266 20.830373 24.947266 20.957031 L 24.947266 21.578125 C 24.947266 21.704783 24.900709 21.814135 24.808594 21.90625 C 24.716479 21.998365 24.607127 22.044922 24.480469 22.044922 L 17.037109 22.044922 C 16.910451 22.044922 16.801099 21.998365 16.708984 21.90625 C 16.616869 21.814135 16.570313 21.704783 16.570312 21.578125 L 16.570312 20.957031 C 16.570312 20.830373 16.592614 20.727085 16.638672 20.646484 C 16.696244 20.554369 16.799532 20.438954 16.949219 20.300781 L 22.009766 15.689453 C 22.378226 15.355536 22.643486 15.027481 22.804688 14.705078 C 22.965889 14.382676 23.046875 13.973634 23.046875 13.478516 C 23.046875 12.83371 22.862601 12.315317 22.494141 11.923828 C 22.125681 11.532339 21.566794 11.335938 20.818359 11.335938 C 20.081439 11.335938 19.528616 11.532339 19.160156 11.923828 C 18.791696 12.303803 18.526436 12.822196 18.365234 13.478516 C 18.330691 13.605174 18.27396 13.702398 18.193359 13.771484 C 18.112759 13.840571 18.021598 13.875 17.917969 13.875 L 17.123047 13.875 C 17.019417 13.875 16.926304 13.840571 16.845703 13.771484 C 16.776617 13.690884 16.742187 13.599723 16.742188 13.496094 C 16.765216 12.90886 16.939316 12.327672 17.261719 11.751953 C 17.595636 11.176234 18.067472 10.704398 18.677734 10.335938 C 19.287996 9.9674774 20.000839 9.7832031 20.818359 9.7832031 z M 7.5195312 9.9550781 L 8.2285156 9.9550781 C 8.3551738 9.9550781 8.4645256 10.001635 8.5566406 10.09375 C 8.6487557 10.185865 8.6933594 10.295217 8.6933594 10.421875 L 8.6933594 20.490234 L 14.548828 20.490234 C 14.675486 20.490234 14.784838 20.536791 14.876953 20.628906 C 14.969068 20.721021 15.015625 20.830373 15.015625 20.957031 L 15.015625 21.578125 C 15.015625 21.704783 14.969068 21.814135 14.876953 21.90625 C 14.784838 21.998365 14.675486 22.044922 14.548828 22.044922 L 7.5195312 22.044922 C 7.3928731 22.044922 7.2835213 21.998365 7.1914062 21.90625 C 7.0992912 21.814135 7.0527344 21.704783 7.0527344 21.578125 L 7.0527344 10.421875 C 7.0527344 10.295217 7.0992912 10.185865 7.1914062 10.09375 C 7.2835213 10.001635 7.3928731 9.9550781 7.5195312 9.9550781 z "
       transform="matrix(0.26458333,0,0,0.26458333,0,288.53332)"
       id="rect3184" />
  </g>
</svg>
