<?xml version="1.0" encoding="UTF-8" standalone="no"?>
<!-- Created with Inkscape (http://www.inkscape.org/) -->

<svg
   xmlns:dc="http://purl.org/dc/elements/1.1/"
   xmlns:cc="http://creativecommons.org/ns#"
   xmlns:rdf="http://www.w3.org/1999/02/22-rdf-syntax-ns#"
   xmlns:svg="http://www.w3.org/2000/svg"
   xmlns="http://www.w3.org/2000/svg"
   xmlns:sodipodi="http://sodipodi.sourceforge.net/DTD/sodipodi-0.dtd"
   xmlns:inkscape="http://www.inkscape.org/namespaces/inkscape"
   width="32"
   height="32"
   viewBox="0 0 8.4666665 8.4666669"
   version="1.1"
   id="svg8"
   inkscape:version="0.92.4 5da689c313, 2019-01-14"
   sodipodi:docname="btnL3.svg">
  <defs
     id="defs2" />
  <sodipodi:namedview
     id="base"
     pagecolor="#ffffff"
     bordercolor="#666666"
     borderopacity="1.0"
     inkscape:pageopacity="0.0"
     inkscape:pageshadow="2"
     inkscape:zoom="15.839192"
     inkscape:cx="10.965317"
     inkscape:cy="18.320141"
     inkscape:document-units="mm"
     inkscape:current-layer="layer1"
     showgrid="true"
     units="px"
     inkscape:window-width="1920"
     inkscape:window-height="1046"
     inkscape:window-x="0"
     inkscape:window-y="0"
     inkscape:window-maximized="1"
     borderlayer="true">
    <inkscape:grid
       type="xygrid"
       id="grid815"
       empspacing="4" />
    <inkscape:grid
       type="xygrid"
       id="grid817"
       empspacing="1"
       originy="0.13229167"
       originx="0.13229167"
       dotted="true" />
  </sodipodi:namedview>
  <metadata
     id="metadata5">
    <rdf:RDF>
      <cc:Work
         rdf:about="">
        <dc:format>image/svg+xml</dc:format>
        <dc:type
           rdf:resource="http://purl.org/dc/dcmitype/StillImage" />
        <dc:title></dc:title>
      </cc:Work>
    </rdf:RDF>
  </metadata>
  <g
     inkscape:label="Layer 1"
     inkscape:groupmode="layer"
     id="layer1"
     transform="translate(0,-288.53332)">
    <path
       style="opacity:1;fill:#000000;fill-opacity:1;stroke:none;stroke-width:0.26499999;stroke-linecap:round;stroke-linejoin:round;stroke-miterlimit:4;stroke-dasharray:none;stroke-dashoffset:0;stroke-opacity:1;paint-order:normal"
       d="m 6.2807534,295.67552 a 2.1166665,1.0583333 0 0 1 -2.0474201,0.7953 2.1166665,1.0583333 0 0 1 -2.0474202,-0.7922 2.1166665,1.0583333 0 0 0 -0.069247,0.26304 2.1166665,1.0583333 0 0 0 2.1166667,1.05833 2.1166665,1.0583333 0 0 0 2.1166666,-1.05833 2.1166665,1.0583333 0 0 0 -0.069247,-0.26614 z"
       id="path1544"
       inkscape:connector-curvature="0" />
    <path
       style="opacity:1;fill:#000000;fill-opacity:1;stroke:none;stroke-width:1.00157475;stroke-linecap:round;stroke-linejoin:round;stroke-miterlimit:4;stroke-dasharray:none;stroke-dashoffset:0;stroke-opacity:1;paint-order:normal"
       d="M 16 0 A 15.999999 14.25 0 0 0 0 14.25 A 15.999999 14.25 0 0 0 16 28.5 A 15.999999 14.25 0 0 0 32 14.25 A 15.999999 14.25 0 0 0 16 0 z M 10.869141 5.4257812 L 11.904297 5.4257812 C 12.089165 5.4257812 12.248363 5.4944569 12.382812 5.6289062 C 12.517262 5.7633556 12.583984 5.922554 12.583984 6.1074219 L 12.583984 20.804688 L 21.130859 20.804688 C 21.315727 20.804688 21.474926 20.87141 21.609375 21.005859 C 21.743824 21.140309 21.810547 21.299507 21.810547 21.484375 L 21.810547 22.392578 C 21.810547 22.577446 21.743824 22.736644 21.609375 22.871094 C 21.474926 23.005543 21.315727 23.072266 21.130859 23.072266 L 10.869141 23.072266 C 10.684273 23.072266 10.525074 23.005543 10.390625 22.871094 C 10.256176 22.736644 10.189453 22.577446 10.189453 22.392578 L 10.189453 6.1074219 C 10.189453 5.922554 10.256176 5.7633556 10.390625 5.6289062 C 10.525074 5.4944569 10.684273 5.4257813 10.869141 5.4257812 z "
       transform="matrix(0.26458333,0,0,0.26458333,0,288.53332)"
       id="path1562" />
  </g>
</svg>
