<?xml version="1.0" encoding="UTF-8" standalone="no"?>
<!-- Created with Inkscape (http://www.inkscape.org/) -->

<svg
   xmlns:dc="http://purl.org/dc/elements/1.1/"
   xmlns:cc="http://creativecommons.org/ns#"
   xmlns:rdf="http://www.w3.org/1999/02/22-rdf-syntax-ns#"
   xmlns:svg="http://www.w3.org/2000/svg"
   xmlns="http://www.w3.org/2000/svg"
   xmlns:sodipodi="http://sodipodi.sourceforge.net/DTD/sodipodi-0.dtd"
   xmlns:inkscape="http://www.inkscape.org/namespaces/inkscape"
   width="32"
   height="32"
   viewBox="0 0 8.4666665 8.4666669"
   version="1.1"
   id="svg8"
   inkscape:version="0.92.4 5da689c313, 2019-01-14"
   sodipodi:docname="btnL1.svg">
  <defs
     id="defs2" />
  <sodipodi:namedview
     id="base"
     pagecolor="#ffffff"
     bordercolor="#666666"
     borderopacity="1.0"
     inkscape:pageopacity="0.0"
     inkscape:pageshadow="2"
     inkscape:zoom="15.839192"
     inkscape:cx="11.161941"
     inkscape:cy="14.484978"
     inkscape:document-units="mm"
     inkscape:current-layer="layer1"
     showgrid="true"
     units="px"
     inkscape:window-width="1920"
     inkscape:window-height="1046"
     inkscape:window-x="0"
     inkscape:window-y="0"
     inkscape:window-maximized="1">
    <inkscape:grid
       type="xygrid"
       id="grid815"
       empspacing="4" />
    <inkscape:grid
       type="xygrid"
       id="grid817"
       empspacing="1"
       originy="0.13229167"
       originx="0.13229167"
       dotted="true" />
  </sodipodi:namedview>
  <metadata
     id="metadata5">
    <rdf:RDF>
      <cc:Work
         rdf:about="">
        <dc:format>image/svg+xml</dc:format>
        <dc:type
           rdf:resource="http://purl.org/dc/dcmitype/StillImage" />
        <dc:title></dc:title>
      </cc:Work>
    </rdf:RDF>
  </metadata>
  <g
     inkscape:label="Layer 1"
     inkscape:groupmode="layer"
     id="layer1"
     transform="translate(0,-288.53332)">
    <path
       style="opacity:1;fill:#000000;fill-opacity:1;stroke:none;stroke-width:0.99999994;stroke-linecap:round;stroke-linejoin:round;stroke-miterlimit:4;stroke-dasharray:none;stroke-dashoffset:0;stroke-opacity:1;paint-order:normal"
       d="M 1 8 C 0.44601937 8 0 8.4460194 0 9 L 0 23 C 7.4014868e-17 23.553981 0.44601937 24 1 24 L 31 24 C 31.553981 24 32 23.553981 32 23 L 32 9 C 32 8.4460194 31.553981 8 31 8 L 1 8 z M 9.2128906 9.9550781 L 9.9199219 9.9550781 C 10.04658 9.9550781 10.155932 10.001635 10.248047 10.09375 C 10.340162 10.185865 10.386719 10.295217 10.386719 10.421875 L 10.386719 20.490234 L 16.242188 20.490234 C 16.368846 20.490234 16.478197 20.536791 16.570312 20.628906 C 16.662428 20.721021 16.708984 20.830373 16.708984 20.957031 L 16.708984 21.578125 C 16.708984 21.704783 16.662428 21.814135 16.570312 21.90625 C 16.478197 21.998365 16.368846 22.044922 16.242188 22.044922 L 9.2128906 22.044922 C 9.0862325 22.044922 8.9768807 21.998365 8.8847656 21.90625 C 8.7926506 21.814135 8.7460937 21.704783 8.7460938 21.578125 L 8.7460938 10.421875 C 8.7460938 10.295217 8.7926506 10.185865 8.8847656 10.09375 C 8.9768807 10.001635 9.0862325 9.9550781 9.2128906 9.9550781 z M 22.080078 9.9550781 L 22.787109 9.9550781 C 22.913768 9.9550781 23.023119 10.001635 23.115234 10.09375 C 23.207349 10.185865 23.253906 10.295217 23.253906 10.421875 L 23.253906 21.578125 C 23.253906 21.704783 23.207349 21.814135 23.115234 21.90625 C 23.023119 21.998365 22.913768 22.044922 22.787109 22.044922 L 22.080078 22.044922 C 21.95342 22.044922 21.844068 21.998365 21.751953 21.90625 C 21.659838 21.814135 21.613281 21.704783 21.613281 21.578125 L 21.613281 12.0625 L 18.814453 14.1875 C 18.733852 14.256586 18.636628 14.291016 18.521484 14.291016 C 18.371797 14.291016 18.250318 14.232331 18.158203 14.117188 L 17.744141 13.582031 C 17.675054 13.489916 17.640625 13.392692 17.640625 13.289062 C 17.640625 13.139376 17.70342 13.017896 17.830078 12.925781 L 21.527344 10.09375 C 21.654002 10.001635 21.838276 9.9550781 22.080078 9.9550781 z "
       transform="matrix(0.26458333,0,0,0.26458333,0,288.53332)"
       id="rect3117" />
  </g>
</svg>
