<?xml version="1.0" encoding="UTF-8" standalone="no"?>
<svg
   xmlns:dc="http://purl.org/dc/elements/1.1/"
   xmlns:cc="http://creativecommons.org/ns#"
   xmlns:rdf="http://www.w3.org/1999/02/22-rdf-syntax-ns#"
   xmlns:svg="http://www.w3.org/2000/svg"
   xmlns="http://www.w3.org/2000/svg"
   xmlns:sodipodi="http://sodipodi.sourceforge.net/DTD/sodipodi-0.dtd"
   xmlns:inkscape="http://www.inkscape.org/namespaces/inkscape"
   width="32"
   height="32"
   viewBox="0 0 8.4666665 8.4666669"
   version="1.1"
   id="svg8"
   inkscape:version="1.0.1 (3bc2e813f5, 2020-09-07)"
   sodipodi:docname="btnNINR2.svg">
  <defs
     id="defs2" />
  <sodipodi:namedview
     id="base"
     pagecolor="#ffffff"
     bordercolor="#666666"
     borderopacity="1.0"
     inkscape:pageopacity="0.0"
     inkscape:pageshadow="2"
     inkscape:zoom="15.839192"
     inkscape:cx="11.642934"
     inkscape:cy="18.977205"
     inkscape:document-units="mm"
     inkscape:current-layer="layer1"
     showgrid="true"
     units="px"
     inkscape:window-width="1920"
     inkscape:window-height="1043"
     inkscape:window-x="2560"
     inkscape:window-y="0"
     inkscape:window-maximized="1"
     borderlayer="true"
     inkscape:document-rotation="0">
    <inkscape:grid
       type="xygrid"
       id="grid815"
       empspacing="4" />
    <inkscape:grid
       type="xygrid"
       id="grid817"
       empspacing="1"
       originy="0.13229167"
       originx="0.13229167"
       dotted="true" />
  </sodipodi:namedview>
  <metadata
     id="metadata5">
    <rdf:RDF>
      <cc:Work
         rdf:about="">
        <dc:format>image/svg+xml</dc:format>
        <dc:type
           rdf:resource="http://purl.org/dc/dcmitype/StillImage" />
        <dc:title></dc:title>
      </cc:Work>
    </rdf:RDF>
  </metadata>
  <g
     inkscape:label="Layer 1"
     inkscape:groupmode="layer"
     id="layer1"
     transform="translate(0,-288.53332)">
    <path
       id="path11967"
       style="fill:#000000;fill-opacity:1;stroke-width:0.999999;stroke-linecap:round;stroke-linejoin:round"
       d="M 0 0 L 0 12 L 0 32 L 20 32 L 32 32 L 32 12 A 12 12 0 0 0 20 0 L 0 0 z M 4.6367188 7.1191406 L 15.951172 7.1191406 C 16.137238 7.1191406 16.298272 7.1869585 16.433594 7.3222656 C 16.568916 7.4575727 16.636719 7.6186088 16.636719 7.8046875 L 16.636719 8.71875 C 16.636719 8.9893894 16.526539 9.267141 16.306641 9.5546875 L 6.84375 22.597656 L 16.205078 22.597656 C 16.391144 22.597656 16.552178 22.665474 16.6875 22.800781 C 16.822822 22.936088 16.890625 23.095171 16.890625 23.28125 L 16.890625 24.195312 C 16.890625 24.381265 16.822822 24.542301 16.6875 24.677734 C 16.552178 24.813041 16.391144 24.880859 16.205078 24.880859 L 4.3828125 24.880859 C 4.1967464 24.880859 4.0357128 24.813041 3.9003906 24.677734 C 3.7650692 24.542427 3.6972656 24.381391 3.6972656 24.195312 L 3.6972656 23.28125 C 3.6972656 23.0444 3.7565937 22.842949 3.875 22.673828 C 3.993405 22.504757 4.0612078 22.411413 4.078125 22.394531 L 13.490234 9.4023438 L 4.6367188 9.4023438 C 4.4506526 9.4023437 4.2896191 9.336479 4.1542969 9.2011719 C 4.0189747 9.0658648 3.9511719 8.9048287 3.9511719 8.71875 L 3.9511719 7.8046875 C 3.9511719 7.6187347 4.0189747 7.4576987 4.1542969 7.3222656 C 4.2896191 7.1869585 4.4506526 7.1191406 4.6367188 7.1191406 z M 18.375 10.783203 L 23.449219 10.783203 C 24.845433 10.783203 26.001154 11.14613 26.914062 11.871094 C 27.840397 12.596058 28.302734 13.656527 28.302734 15.052734 C 28.302734 15.992501 28.087807 16.791405 27.658203 17.449219 C 27.36285 17.878825 27.014082 18.235651 26.611328 18.517578 L 26.8125 18.677734 C 27.738834 19.402673 28.203125 20.483424 28.203125 21.919922 L 28.203125 24.335938 C 28.203125 24.48359 28.148417 24.611311 28.041016 24.71875 C 27.933614 24.826089 27.805879 24.880859 27.658203 24.880859 L 26.832031 24.880859 C 26.684355 24.880859 26.558573 24.826089 26.451172 24.71875 C 26.34377 24.611411 26.289062 24.483691 26.289062 24.335938 L 26.289062 21.859375 C 26.289063 20.221504 25.275242 19.402344 23.248047 19.402344 L 19.744141 19.402344 L 19.744141 24.335938 C 19.744141 24.48359 19.691386 24.611311 19.583984 24.71875 C 19.476583 24.826089 19.348848 24.880859 19.201172 24.880859 L 18.375 24.880859 C 18.227324 24.880859 18.099588 24.826089 17.992188 24.71875 C 17.884786 24.611411 17.832031 24.483691 17.832031 24.335938 L 17.832031 11.328125 C 17.832031 11.180471 17.884786 11.052727 17.992188 10.945312 C 18.099588 10.837975 18.227324 10.783203 18.375 10.783203 z M 19.744141 12.595703 L 19.744141 17.589844 L 23.349609 17.589844 C 24.343069 17.589844 25.095314 17.374919 25.605469 16.945312 C 26.129049 16.515707 26.390625 15.885087 26.390625 15.052734 C 26.390625 13.414864 25.376805 12.595703 23.349609 12.595703 L 19.744141 12.595703 z "
       transform="matrix(0.26458333,0,0,0.26458333,0,288.53332)" />
  </g>
</svg>
