<?xml version="1.0" encoding="UTF-8" standalone="no"?>
<svg
   xmlns:dc="http://purl.org/dc/elements/1.1/"
   xmlns:cc="http://creativecommons.org/ns#"
   xmlns:rdf="http://www.w3.org/1999/02/22-rdf-syntax-ns#"
   xmlns:svg="http://www.w3.org/2000/svg"
   xmlns="http://www.w3.org/2000/svg"
   xmlns:sodipodi="http://sodipodi.sourceforge.net/DTD/sodipodi-0.dtd"
   xmlns:inkscape="http://www.inkscape.org/namespaces/inkscape"
   width="32"
   height="32"
   viewBox="0 0 8.4666665 8.4666669"
   version="1.1"
   id="svg8"
   inkscape:version="1.0.1 (3bc2e813f5, 2020-09-07)"
   sodipodi:docname="btnNINR1.svg">
  <defs
     id="defs2" />
  <sodipodi:namedview
     id="base"
     pagecolor="#ffffff"
     bordercolor="#666666"
     borderopacity="1.0"
     inkscape:pageopacity="0.0"
     inkscape:pageshadow="2"
     inkscape:zoom="15.839192"
     inkscape:cx="13.395997"
     inkscape:cy="18.320141"
     inkscape:document-units="mm"
     inkscape:current-layer="layer1"
     showgrid="true"
     units="px"
     inkscape:window-width="1920"
     inkscape:window-height="1043"
     inkscape:window-x="2560"
     inkscape:window-y="0"
     inkscape:window-maximized="1"
     borderlayer="true"
     inkscape:document-rotation="0">
    <inkscape:grid
       type="xygrid"
       id="grid815"
       empspacing="4" />
    <inkscape:grid
       type="xygrid"
       id="grid817"
       empspacing="1"
       originy="0.13229167"
       originx="0.13229167"
       dotted="true" />
  </sodipodi:namedview>
  <metadata
     id="metadata5">
    <rdf:RDF>
      <cc:Work
         rdf:about="">
        <dc:format>image/svg+xml</dc:format>
        <dc:type
           rdf:resource="http://purl.org/dc/dcmitype/StillImage" />
        <dc:title></dc:title>
      </cc:Work>
    </rdf:RDF>
  </metadata>
  <g
     inkscape:label="Layer 1"
     inkscape:groupmode="layer"
     id="layer1"
     transform="translate(0,-288.53332)">
    <path
       id="path11967"
       style="fill:#000000;fill-opacity:1;stroke-width:0.999999;stroke-linecap:round;stroke-linejoin:round"
       d="M 0 0 L 0 12 L 0 32 L 20 32 L 32 32 L 32 12 A 12 12 0 0 0 20 0 L 0 0 z M 10.835938 7.1191406 L 17.230469 7.1191406 C 18.989647 7.1191406 20.443518 7.5767982 21.59375 8.4902344 C 22.760897 9.4036454 23.345703 10.738853 23.345703 12.498047 C 23.345703 13.682097 23.074489 14.688728 22.533203 15.517578 C 22.161069 16.058857 21.722299 16.508056 21.214844 16.863281 C 21.299419 16.931061 21.384174 16.998879 21.46875 17.066406 C 22.635897 17.979842 23.21875 19.340476 23.21875 21.150391 L 23.21875 24.195312 C 23.21875 24.381265 23.150947 24.542301 23.015625 24.677734 C 22.880303 24.813041 22.719269 24.880859 22.533203 24.880859 L 21.494141 24.880859 C 21.308074 24.880859 21.147041 24.813041 21.011719 24.677734 C 20.876397 24.542427 20.808594 24.381391 20.808594 24.195312 L 20.808594 21.074219 C 20.808594 19.010572 19.530754 17.978516 16.976562 17.978516 L 12.5625 17.978516 L 12.5625 24.195312 C 12.5625 24.381265 12.494697 24.542301 12.359375 24.677734 C 12.224053 24.813041 12.063019 24.880859 11.876953 24.880859 L 10.835938 24.880859 C 10.649871 24.880859 10.490791 24.813041 10.355469 24.677734 C 10.220147 24.542427 10.152344 24.381391 10.152344 24.195312 L 10.152344 7.8046875 C 10.152344 7.6187347 10.220147 7.4576987 10.355469 7.3222656 C 10.490791 7.1869585 10.649871 7.1191406 10.835938 7.1191406 z M 12.5625 9.4023438 L 12.5625 15.695312 L 17.103516 15.695312 C 18.355239 15.695312 19.302536 15.424091 19.945312 14.882812 C 20.605004 14.341509 20.935547 13.546765 20.935547 12.498047 C 20.935547 10.434374 19.657707 9.4023438 17.103516 9.4023438 L 12.5625 9.4023438 z "
       transform="matrix(0.26458333,0,0,0.26458333,0,288.53332)" />
  </g>
</svg>
