<?xml version="1.0" encoding="UTF-8" standalone="no"?>
<svg
   xmlns:dc="http://purl.org/dc/elements/1.1/"
   xmlns:cc="http://creativecommons.org/ns#"
   xmlns:rdf="http://www.w3.org/1999/02/22-rdf-syntax-ns#"
   xmlns:svg="http://www.w3.org/2000/svg"
   xmlns="http://www.w3.org/2000/svg"
   xmlns:sodipodi="http://sodipodi.sourceforge.net/DTD/sodipodi-0.dtd"
   xmlns:inkscape="http://www.inkscape.org/namespaces/inkscape"
   width="32"
   height="32"
   viewBox="0 0 8.4666665 8.4666669"
   version="1.1"
   id="svg8"
   inkscape:version="1.0.1 (3bc2e813f5, 2020-09-07)"
   sodipodi:docname="btnNINL2.svg">
  <defs
     id="defs2" />
  <sodipodi:namedview
     id="base"
     pagecolor="#ffffff"
     bordercolor="#666666"
     borderopacity="1.0"
     inkscape:pageopacity="0.0"
     inkscape:pageshadow="2"
     inkscape:zoom="15.839192"
     inkscape:cx="11.642934"
     inkscape:cy="18.977205"
     inkscape:document-units="mm"
     inkscape:current-layer="layer1"
     showgrid="true"
     units="px"
     inkscape:window-width="1920"
     inkscape:window-height="1043"
     inkscape:window-x="2560"
     inkscape:window-y="0"
     inkscape:window-maximized="1"
     borderlayer="true"
     inkscape:document-rotation="0">
    <inkscape:grid
       type="xygrid"
       id="grid815"
       empspacing="4" />
    <inkscape:grid
       type="xygrid"
       id="grid817"
       empspacing="1"
       originy="0.13229167"
       originx="0.13229167"
       dotted="true" />
  </sodipodi:namedview>
  <metadata
     id="metadata5">
    <rdf:RDF>
      <cc:Work
         rdf:about="">
        <dc:format>image/svg+xml</dc:format>
        <dc:type
           rdf:resource="http://purl.org/dc/dcmitype/StillImage" />
        <dc:title></dc:title>
      </cc:Work>
    </rdf:RDF>
  </metadata>
  <g
     inkscape:label="Layer 1"
     inkscape:groupmode="layer"
     id="layer1"
     transform="translate(0,-288.53332)">
    <path
       id="path11967"
       style="fill:#000000;fill-opacity:1;stroke-width:0.999999;stroke-linecap:round;stroke-linejoin:round"
       d="M 12 0 A 12 12 0 0 0 0 12 L 0 32 L 12 32 L 32 32 L 32 12 L 32 0 L 12 0 z M 5.2304688 7.1191406 L 16.546875 7.1191406 C 16.732941 7.1191406 16.892022 7.1869585 17.027344 7.3222656 C 17.162666 7.4575727 17.230469 7.6186088 17.230469 7.8046875 L 17.230469 8.71875 C 17.230469 8.9893894 17.120289 9.267141 16.900391 9.5546875 L 7.4375 22.597656 L 16.800781 22.597656 C 16.986847 22.597656 17.145928 22.665474 17.28125 22.800781 C 17.416572 22.936088 17.484375 23.095171 17.484375 23.28125 L 17.484375 24.195312 C 17.484375 24.381265 17.416572 24.542301 17.28125 24.677734 C 17.145928 24.813041 16.986847 24.880859 16.800781 24.880859 L 4.9765625 24.880859 C 4.7904964 24.880859 4.6294628 24.813041 4.4941406 24.677734 C 4.3588184 24.542427 4.2910156 24.381391 4.2910156 24.195312 L 4.2910156 23.28125 C 4.2910156 23.0444 4.350345 22.842949 4.46875 22.673828 C 4.587155 22.504757 4.6549578 22.411413 4.671875 22.394531 L 14.085938 9.4023438 L 5.2304688 9.4023438 C 5.0444026 9.4023437 4.8833691 9.336479 4.7480469 9.2011719 C 4.6127247 9.0658648 4.5449219 8.9048287 4.5449219 8.71875 L 4.5449219 7.8046875 C 4.5449219 7.6187347 4.6127247 7.4576987 4.7480469 7.3222656 C 4.8833691 7.1869585 5.0444026 7.1191406 5.2304688 7.1191406 z M 18.96875 10.783203 L 19.794922 10.783203 C 19.942598 10.783203 20.070333 10.837975 20.177734 10.945312 C 20.285136 11.052651 20.337891 11.180396 20.337891 11.328125 L 20.337891 23.068359 L 27.166016 23.068359 C 27.313692 23.068359 27.439474 23.121177 27.546875 23.228516 C 27.654277 23.335854 27.708984 23.463599 27.708984 23.611328 L 27.708984 24.335938 C 27.708984 24.48359 27.654277 24.611311 27.546875 24.71875 C 27.439473 24.826089 27.313692 24.880859 27.166016 24.880859 L 18.96875 24.880859 C 18.821074 24.880859 18.693338 24.826089 18.585938 24.71875 C 18.478536 24.611411 18.425781 24.483691 18.425781 24.335938 L 18.425781 11.328125 C 18.425781 11.180471 18.478536 11.052727 18.585938 10.945312 C 18.693338 10.837975 18.821074 10.783203 18.96875 10.783203 z "
       transform="matrix(0.26458333,0,0,0.26458333,0,288.53332)" />
  </g>
</svg>
