<?xml version="1.0" encoding="UTF-8" standalone="no"?>
<svg
   xmlns:dc="http://purl.org/dc/elements/1.1/"
   xmlns:cc="http://creativecommons.org/ns#"
   xmlns:rdf="http://www.w3.org/1999/02/22-rdf-syntax-ns#"
   xmlns:svg="http://www.w3.org/2000/svg"
   xmlns="http://www.w3.org/2000/svg"
   xmlns:sodipodi="http://sodipodi.sourceforge.net/DTD/sodipodi-0.dtd"
   xmlns:inkscape="http://www.inkscape.org/namespaces/inkscape"
   width="32"
   height="32"
   viewBox="0 0 8.4666665 8.4666669"
   version="1.1"
   id="svg8"
   inkscape:version="1.0.1 (3bc2e813f5, 2020-09-07)"
   sodipodi:docname="btnNINL1.svg">
  <defs
     id="defs2" />
  <sodipodi:namedview
     id="base"
     pagecolor="#ffffff"
     bordercolor="#666666"
     borderopacity="1.0"
     inkscape:pageopacity="0.0"
     inkscape:pageshadow="2"
     inkscape:zoom="15.839192"
     inkscape:cx="13.395997"
     inkscape:cy="18.320141"
     inkscape:document-units="mm"
     inkscape:current-layer="layer1"
     showgrid="true"
     units="px"
     inkscape:window-width="1920"
     inkscape:window-height="1043"
     inkscape:window-x="2560"
     inkscape:window-y="0"
     inkscape:window-maximized="1"
     borderlayer="true"
     inkscape:document-rotation="0">
    <inkscape:grid
       type="xygrid"
       id="grid815"
       empspacing="4" />
    <inkscape:grid
       type="xygrid"
       id="grid817"
       empspacing="1"
       originy="0.13229167"
       originx="0.13229167"
       dotted="true" />
  </sodipodi:namedview>
  <metadata
     id="metadata5">
    <rdf:RDF>
      <cc:Work
         rdf:about="">
        <dc:format>image/svg+xml</dc:format>
        <dc:type
           rdf:resource="http://purl.org/dc/dcmitype/StillImage" />
        <dc:title></dc:title>
      </cc:Work>
    </rdf:RDF>
  </metadata>
  <g
     inkscape:label="Layer 1"
     inkscape:groupmode="layer"
     id="layer1"
     transform="translate(0,-288.53332)">
    <path
       id="path11967"
       style="fill:#000000;stroke-width:0.999999;stroke-linecap:round;stroke-linejoin:round;fill-opacity:1"
       d="M 12 0 A 12 12 0 0 0 0 12 L 0 32 L 12 32 L 32 32 L 32 12 L 32 0 L 12 0 z M 10.835938 7.1191406 L 11.876953 7.1191406 C 12.063019 7.1191406 12.224053 7.1869585 12.359375 7.3222656 C 12.494697 7.4575727 12.5625 7.6186088 12.5625 7.8046875 L 12.5625 22.597656 L 21.164062 22.597656 C 21.350129 22.597656 21.509209 22.665474 21.644531 22.800781 C 21.779853 22.936088 21.847656 23.095171 21.847656 23.28125 L 21.847656 24.195312 C 21.847656 24.381265 21.779853 24.542301 21.644531 24.677734 C 21.509209 24.813041 21.350129 24.880859 21.164062 24.880859 L 10.835938 24.880859 C 10.649871 24.880859 10.490791 24.813041 10.355469 24.677734 C 10.220147 24.542427 10.152344 24.381391 10.152344 24.195312 L 10.152344 7.8046875 C 10.152344 7.6187347 10.220147 7.4576987 10.355469 7.3222656 C 10.490791 7.1869585 10.649871 7.1191406 10.835938 7.1191406 z "
       transform="matrix(0.26458333,0,0,0.26458333,0,288.53332)" />
  </g>
</svg>
