<?xml version="1.0" encoding="UTF-8" standalone="no"?>
<!-- Created with Inkscape (http://www.inkscape.org/) -->

<svg
   xmlns:dc="http://purl.org/dc/elements/1.1/"
   xmlns:cc="http://creativecommons.org/ns#"
   xmlns:rdf="http://www.w3.org/1999/02/22-rdf-syntax-ns#"
   xmlns:svg="http://www.w3.org/2000/svg"
   xmlns="http://www.w3.org/2000/svg"
   xmlns:sodipodi="http://sodipodi.sourceforge.net/DTD/sodipodi-0.dtd"
   xmlns:inkscape="http://www.inkscape.org/namespaces/inkscape"
   width="32"
   height="32"
   viewBox="0 0 8.4666665 8.4666669"
   version="1.1"
   id="svg8"
   inkscape:version="0.92.4 5da689c313, 2019-01-14"
   sodipodi:docname="btnR1.svg">
  <defs
     id="defs2" />
  <sodipodi:namedview
     id="base"
     pagecolor="#ffffff"
     bordercolor="#666666"
     borderopacity="1.0"
     inkscape:pageopacity="0.0"
     inkscape:pageshadow="2"
     inkscape:zoom="15.839192"
     inkscape:cx="11.162695"
     inkscape:cy="14.502233"
     inkscape:document-units="mm"
     inkscape:current-layer="layer1"
     showgrid="true"
     units="px"
     inkscape:window-width="1920"
     inkscape:window-height="1046"
     inkscape:window-x="0"
     inkscape:window-y="0"
     inkscape:window-maximized="1">
    <inkscape:grid
       type="xygrid"
       id="grid815"
       empspacing="4" />
    <inkscape:grid
       type="xygrid"
       id="grid817"
       empspacing="1"
       originy="0.13229167"
       originx="0.13229167"
       dotted="true" />
  </sodipodi:namedview>
  <metadata
     id="metadata5">
    <rdf:RDF>
      <cc:Work
         rdf:about="">
        <dc:format>image/svg+xml</dc:format>
        <dc:type
           rdf:resource="http://purl.org/dc/dcmitype/StillImage" />
        <dc:title></dc:title>
      </cc:Work>
    </rdf:RDF>
  </metadata>
  <g
     inkscape:label="Layer 1"
     inkscape:groupmode="layer"
     id="layer1"
     transform="translate(0,-288.53332)">
    <path
       style="opacity:1;fill:#000000;fill-opacity:1;stroke:none;stroke-width:0.99999994;stroke-linecap:round;stroke-linejoin:round;stroke-miterlimit:4;stroke-dasharray:none;stroke-dashoffset:0;stroke-opacity:1;paint-order:normal"
       d="M 1 8 C 0.44601937 8 0 8.4460194 0 9 L 0 23 C 7.4014868e-17 23.553981 0.44601937 24 1 24 L 31 24 C 31.553981 24 32 23.553981 32 23 L 32 9 C 32 8.4460194 31.553981 8 31 8 L 1 8 z M 7.9003906 9.9550781 L 12.251953 9.9550781 C 13.449448 9.9550781 14.439679 10.264942 15.222656 10.886719 C 16.017148 11.508495 16.414062 12.419692 16.414062 13.617188 C 16.414062 14.423194 16.229788 15.10767 15.861328 15.671875 C 15.608012 16.040335 15.308322 16.346089 14.962891 16.587891 L 15.136719 16.724609 C 15.931211 17.346386 16.328125 18.273821 16.328125 19.505859 L 16.328125 21.578125 C 16.328125 21.704783 16.281568 21.814135 16.189453 21.90625 C 16.097338 21.998365 15.987986 22.044922 15.861328 22.044922 L 15.154297 22.044922 C 15.027639 22.044922 14.918287 21.998365 14.826172 21.90625 C 14.734057 21.814135 14.6875 21.704783 14.6875 21.578125 L 14.6875 19.455078 C 14.6875 18.050324 13.818749 17.347656 12.080078 17.347656 L 9.0742188 17.347656 L 9.0742188 21.578125 C 9.0742188 21.704783 9.0276619 21.814135 8.9355469 21.90625 C 8.8434318 21.998365 8.73408 22.044922 8.6074219 22.044922 L 7.9003906 22.044922 C 7.7737325 22.044922 7.6643807 21.998365 7.5722656 21.90625 C 7.4801506 21.814135 7.4335938 21.704783 7.4335938 21.578125 L 7.4335938 10.421875 C 7.4335938 10.295217 7.4801506 10.185865 7.5722656 10.09375 C 7.6643807 10.001635 7.7737325 9.9550781 7.9003906 9.9550781 z M 23.392578 9.9550781 L 24.099609 9.9550781 C 24.226268 9.9550781 24.335619 10.001635 24.427734 10.09375 C 24.519849 10.185865 24.566406 10.295217 24.566406 10.421875 L 24.566406 21.578125 C 24.566406 21.704783 24.519849 21.814135 24.427734 21.90625 C 24.335619 21.998365 24.226268 22.044922 24.099609 22.044922 L 23.392578 22.044922 C 23.26592 22.044922 23.156568 21.998365 23.064453 21.90625 C 22.972338 21.814135 22.925781 21.704783 22.925781 21.578125 L 22.925781 12.0625 L 20.126953 14.1875 C 20.046352 14.256586 19.949128 14.291016 19.833984 14.291016 C 19.684297 14.291016 19.562818 14.232331 19.470703 14.117188 L 19.056641 13.582031 C 18.987554 13.489916 18.953125 13.392692 18.953125 13.289062 C 18.953125 13.139376 19.01592 13.017896 19.142578 12.925781 L 22.839844 10.09375 C 22.966502 10.001635 23.150776 9.9550781 23.392578 9.9550781 z M 9.0742188 11.509766 L 9.0742188 15.792969 L 12.166016 15.792969 C 13.01808 15.792969 13.662063 15.608694 14.099609 15.240234 C 14.54867 14.871774 14.773438 14.331079 14.773438 13.617188 C 14.773437 12.212433 13.904687 11.509766 12.166016 11.509766 L 9.0742188 11.509766 z "
       transform="matrix(0.26458333,0,0,0.26458333,0,288.53332)"
       id="rect3117" />
  </g>
</svg>
