<?xml version="1.0" encoding="UTF-8" standalone="no"?>
<!-- Created with Inkscape (http://www.inkscape.org/) -->

<svg
   xmlns:dc="http://purl.org/dc/elements/1.1/"
   xmlns:cc="http://creativecommons.org/ns#"
   xmlns:rdf="http://www.w3.org/1999/02/22-rdf-syntax-ns#"
   xmlns:svg="http://www.w3.org/2000/svg"
   xmlns="http://www.w3.org/2000/svg"
   xmlns:sodipodi="http://sodipodi.sourceforge.net/DTD/sodipodi-0.dtd"
   xmlns:inkscape="http://www.inkscape.org/namespaces/inkscape"
   width="32"
   height="32"
   viewBox="0 0 8.4666665 8.4666669"
   version="1.1"
   id="svg8"
   inkscape:version="0.92.4 5da689c313, 2019-01-14"
   sodipodi:docname="btnR2.svg">
  <defs
     id="defs2" />
  <sodipodi:namedview
     id="base"
     pagecolor="#ffffff"
     bordercolor="#666666"
     borderopacity="1.0"
     inkscape:pageopacity="0.0"
     inkscape:pageshadow="2"
     inkscape:zoom="15.839192"
     inkscape:cx="11.162695"
     inkscape:cy="14.50931"
     inkscape:document-units="mm"
     inkscape:current-layer="layer1"
     showgrid="true"
     units="px"
     inkscape:window-width="1920"
     inkscape:window-height="1046"
     inkscape:window-x="0"
     inkscape:window-y="0"
     inkscape:window-maximized="1">
    <inkscape:grid
       type="xygrid"
       id="grid815"
       empspacing="4" />
    <inkscape:grid
       type="xygrid"
       id="grid817"
       empspacing="1"
       originy="0.13229167"
       originx="0.13229167"
       dotted="true" />
  </sodipodi:namedview>
  <metadata
     id="metadata5">
    <rdf:RDF>
      <cc:Work
         rdf:about="">
        <dc:format>image/svg+xml</dc:format>
        <dc:type
           rdf:resource="http://purl.org/dc/dcmitype/StillImage" />
        <dc:title></dc:title>
      </cc:Work>
    </rdf:RDF>
  </metadata>
  <g
     inkscape:label="Layer 1"
     inkscape:groupmode="layer"
     id="layer1"
     transform="translate(0,-288.53332)">
    <path
       style="opacity:1;fill:#000000;fill-opacity:1;stroke:none;stroke-width:0.99999994;stroke-linecap:round;stroke-linejoin:round;stroke-miterlimit:4;stroke-dasharray:none;stroke-dashoffset:0;stroke-opacity:1;paint-order:normal"
       d="M 1 4 C 0.44601937 4 0 4.4460194 0 5 L 0 27 C 7.4014868e-17 27.553981 0.44601937 28 1 28 L 31 28 C 31.553981 28 32 27.553981 32 27 L 32 5 C 32 4.4460194 31.553981 4 31 4 L 1 4 z M 21.552734 9.7832031 C 22.370255 9.7832031 23.066859 9.9492862 23.642578 10.283203 C 24.229811 10.605606 24.673282 11.049077 24.972656 11.613281 C 25.27203 12.165971 25.421875 12.787653 25.421875 13.478516 C 25.421875 14.203921 25.294332 14.825603 25.041016 15.34375 C 24.799214 15.850383 24.379998 16.368776 23.78125 16.898438 L 19.929688 20.490234 L 25.214844 20.490234 C 25.341502 20.490234 25.450854 20.536791 25.542969 20.628906 C 25.635084 20.721021 25.681641 20.830373 25.681641 20.957031 L 25.681641 21.578125 C 25.681641 21.704783 25.635084 21.814135 25.542969 21.90625 C 25.450854 21.998365 25.341502 22.044922 25.214844 22.044922 L 17.769531 22.044922 C 17.642873 22.044922 17.533521 21.998365 17.441406 21.90625 C 17.349291 21.814135 17.304688 21.704783 17.304688 21.578125 L 17.304688 20.957031 C 17.304688 20.830373 17.326989 20.727085 17.373047 20.646484 C 17.430619 20.554369 17.533907 20.438954 17.683594 20.300781 L 22.744141 15.689453 C 23.112601 15.355536 23.377861 15.027481 23.539062 14.705078 C 23.700264 14.382676 23.78125 13.973634 23.78125 13.478516 C 23.78125 12.83371 23.596976 12.315317 23.228516 11.923828 C 22.860056 11.532339 22.301169 11.335938 21.552734 11.335938 C 20.815814 11.335938 20.262991 11.532339 19.894531 11.923828 C 19.526071 12.303803 19.260811 12.822196 19.099609 13.478516 C 19.065066 13.605174 19.008335 13.702398 18.927734 13.771484 C 18.847134 13.840571 18.75402 13.875 18.650391 13.875 L 17.857422 13.875 C 17.753792 13.875 17.660679 13.840571 17.580078 13.771484 C 17.510992 13.690884 17.476562 13.599723 17.476562 13.496094 C 17.499591 12.90886 17.671738 12.327672 17.994141 11.751953 C 18.328058 11.176234 18.799894 10.704398 19.410156 10.335938 C 20.020418 9.9674774 20.735214 9.7832031 21.552734 9.7832031 z M 6.7851562 9.9550781 L 11.138672 9.9550781 C 12.336167 9.9550781 13.326397 10.264942 14.109375 10.886719 C 14.903867 11.508495 15.300781 12.419692 15.300781 13.617188 C 15.300781 14.423194 15.116507 15.10767 14.748047 15.671875 C 14.494731 16.040335 14.195041 16.346089 13.849609 16.587891 L 14.021484 16.724609 C 14.815976 17.346386 15.214844 18.273821 15.214844 19.505859 L 15.214844 21.578125 C 15.214844 21.704783 15.168287 21.814135 15.076172 21.90625 C 14.984057 21.998365 14.874705 22.044922 14.748047 22.044922 L 14.039062 22.044922 C 13.912404 22.044922 13.803053 21.998365 13.710938 21.90625 C 13.618822 21.814135 13.574219 21.704783 13.574219 21.578125 L 13.574219 19.455078 C 13.574219 18.050324 12.703515 17.347656 10.964844 17.347656 L 7.9609375 17.347656 L 7.9609375 21.578125 C 7.9609375 21.704783 7.9143807 21.814135 7.8222656 21.90625 C 7.7301506 21.998365 7.6207988 22.044922 7.4941406 22.044922 L 6.7851562 22.044922 C 6.6584981 22.044922 6.5491463 21.998365 6.4570312 21.90625 C 6.3649162 21.814135 6.3183594 21.704783 6.3183594 21.578125 L 6.3183594 10.421875 C 6.3183594 10.295217 6.3649162 10.185865 6.4570312 10.09375 C 6.5491463 10.001635 6.6584981 9.9550781 6.7851562 9.9550781 z M 7.9609375 11.509766 L 7.9609375 15.792969 L 11.050781 15.792969 C 11.902845 15.792969 12.548782 15.608694 12.986328 15.240234 C 13.435389 14.871774 13.660156 14.331079 13.660156 13.617188 C 13.660156 12.212433 12.789452 11.509766 11.050781 11.509766 L 7.9609375 11.509766 z "
       transform="matrix(0.26458333,0,0,0.26458333,0,288.53332)"
       id="rect3184" />
  </g>
</svg>
