<?xml version="1.0" encoding="UTF-8" standalone="no"?>
<!-- Created with Inkscape (http://www.inkscape.org/) -->

<svg
   xmlns:dc="http://purl.org/dc/elements/1.1/"
   xmlns:cc="http://creativecommons.org/ns#"
   xmlns:rdf="http://www.w3.org/1999/02/22-rdf-syntax-ns#"
   xmlns:svg="http://www.w3.org/2000/svg"
   xmlns="http://www.w3.org/2000/svg"
   xmlns:sodipodi="http://sodipodi.sourceforge.net/DTD/sodipodi-0.dtd"
   xmlns:inkscape="http://www.inkscape.org/namespaces/inkscape"
   width="32"
   height="32"
   viewBox="0 0 8.4666665 8.4666669"
   version="1.1"
   id="svg8"
   inkscape:version="0.92.4 5da689c313, 2019-01-14"
   sodipodi:docname="btnSTR.svg">
  <defs
     id="defs2" />
  <sodipodi:namedview
     id="base"
     pagecolor="#ffffff"
     bordercolor="#666666"
     borderopacity="1.0"
     inkscape:pageopacity="0.0"
     inkscape:pageshadow="2"
     inkscape:zoom="15.839192"
     inkscape:cx="13.395997"
     inkscape:cy="18.320141"
     inkscape:document-units="mm"
     inkscape:current-layer="layer1"
     showgrid="true"
     units="px"
     inkscape:window-width="1920"
     inkscape:window-height="1046"
     inkscape:window-x="0"
     inkscape:window-y="0"
     inkscape:window-maximized="1"
     borderlayer="true">
    <inkscape:grid
       type="xygrid"
       id="grid815"
       empspacing="4" />
    <inkscape:grid
       type="xygrid"
       id="grid817"
       empspacing="1"
       originy="0.13229167"
       originx="0.13229167"
       dotted="true" />
  </sodipodi:namedview>
  <metadata
     id="metadata5">
    <rdf:RDF>
      <cc:Work
         rdf:about="">
        <dc:format>image/svg+xml</dc:format>
        <dc:type
           rdf:resource="http://purl.org/dc/dcmitype/StillImage" />
        <dc:title></dc:title>
      </cc:Work>
    </rdf:RDF>
  </metadata>
  <g
     inkscape:label="Layer 1"
     inkscape:groupmode="layer"
     id="layer1"
     transform="translate(0,-288.53332)">
    <path
       style="opacity:1;fill:#000000;fill-opacity:1;stroke:none;stroke-width:0.99999994;stroke-linecap:round;stroke-linejoin:round;stroke-miterlimit:4;stroke-dasharray:none;stroke-dashoffset:0;stroke-opacity:1;paint-order:normal"
       d="M 16 0 A 15.999999 15.999999 0 0 0 0 16 A 15.999999 15.999999 0 0 0 16 32 A 15.999999 15.999999 0 0 0 32 16 A 15.999999 15.999999 0 0 0 16 0 z M 15.240234 5.3203125 L 16.720703 5.3203125 C 17.014036 5.3203125 17.267135 5.4272917 17.480469 5.640625 C 17.693802 5.8539583 17.800781 6.1070573 17.800781 6.4003906 L 17.800781 14.240234 L 25.679688 14.240234 C 25.973021 14.240234 26.22612 14.347214 26.439453 14.560547 C 26.652786 14.77388 26.759766 15.026979 26.759766 15.320312 L 26.759766 16.560547 C 26.759766 16.85388 26.652786 17.106979 26.439453 17.320312 C 26.22612 17.533646 25.973021 17.640625 25.679688 17.640625 L 17.800781 17.640625 L 17.800781 25.599609 C 17.800781 25.892943 17.693802 26.146042 17.480469 26.359375 C 17.267135 26.572708 17.014036 26.679687 16.720703 26.679688 L 15.240234 26.679688 C 14.946901 26.679688 14.693802 26.572708 14.480469 26.359375 C 14.267135 26.146042 14.160156 25.892943 14.160156 25.599609 L 14.160156 17.640625 L 6.3203125 17.640625 C 6.0269792 17.640625 5.7738802 17.533646 5.5605469 17.320312 C 5.3472135 17.106979 5.2402344 16.85388 5.2402344 16.560547 L 5.2402344 15.320312 C 5.2402344 15.026979 5.3472135 14.77388 5.5605469 14.560547 C 5.7738802 14.347214 6.0269792 14.240234 6.3203125 14.240234 L 14.160156 14.240234 L 14.160156 6.4003906 C 14.160156 6.1070573 14.267135 5.8539583 14.480469 5.640625 C 14.693802 5.4272917 14.946901 5.3203125 15.240234 5.3203125 z "
       transform="matrix(0.26458333,0,0,0.26458333,0,288.53332)"
       id="path1829" />
  </g>
</svg>
