<?xml version="1.0" encoding="UTF-8" standalone="no"?>
<!-- Created with Inkscape (http://www.inkscape.org/) -->

<svg
   xmlns:dc="http://purl.org/dc/elements/1.1/"
   xmlns:cc="http://creativecommons.org/ns#"
   xmlns:rdf="http://www.w3.org/1999/02/22-rdf-syntax-ns#"
   xmlns:svg="http://www.w3.org/2000/svg"
   xmlns="http://www.w3.org/2000/svg"
   xmlns:sodipodi="http://sodipodi.sourceforge.net/DTD/sodipodi-0.dtd"
   xmlns:inkscape="http://www.inkscape.org/namespaces/inkscape"
   width="32"
   height="32"
   viewBox="0 0 8.4666665 8.4666669"
   version="1.1"
   id="svg8"
   inkscape:version="0.92.4 5da689c313, 2019-01-14"
   sodipodi:docname="btnX.svg">
  <defs
     id="defs2" />
  <sodipodi:namedview
     id="base"
     pagecolor="#ffffff"
     bordercolor="#666666"
     borderopacity="1.0"
     inkscape:pageopacity="0.0"
     inkscape:pageshadow="2"
     inkscape:zoom="15.839192"
     inkscape:cx="-9.0411096"
     inkscape:cy="14.484978"
     inkscape:document-units="mm"
     inkscape:current-layer="layer1"
     showgrid="true"
     units="px"
     inkscape:window-width="1920"
     inkscape:window-height="1046"
     inkscape:window-x="0"
     inkscape:window-y="0"
     inkscape:window-maximized="1">
    <inkscape:grid
       type="xygrid"
       id="grid815"
       empspacing="4" />
    <inkscape:grid
       type="xygrid"
       id="grid817"
       empspacing="1"
       originy="0.13229167"
       originx="0.13229167"
       dotted="true" />
  </sodipodi:namedview>
  <metadata
     id="metadata5">
    <rdf:RDF>
      <cc:Work
         rdf:about="">
        <dc:format>image/svg+xml</dc:format>
        <dc:type
           rdf:resource="http://purl.org/dc/dcmitype/StillImage" />
        <dc:title></dc:title>
      </cc:Work>
    </rdf:RDF>
  </metadata>
  <g
     inkscape:label="Layer 1"
     inkscape:groupmode="layer"
     id="layer1"
     transform="translate(0,-288.53332)">
    <path
       style="opacity:1;fill:#000000;fill-opacity:1;stroke:none;stroke-width:1.00157475;stroke-linecap:round;stroke-linejoin:round;stroke-miterlimit:4;stroke-dasharray:none;stroke-dashoffset:0;stroke-opacity:1;paint-order:normal"
       d="M 16 0 A 15.999999 15.999999 0 0 0 0 16 A 15.999999 15.999999 0 0 0 16 32 A 15.999999 15.999999 0 0 0 32 16 A 15.999999 15.999999 0 0 0 16 0 z M 9.4707031 7.328125 L 10.634766 7.328125 C 10.915577 7.328125 11.123713 7.386325 11.255859 7.5019531 C 11.404524 7.6175812 11.543635 7.7655643 11.675781 7.9472656 L 16.085938 13.992188 L 20.398438 7.9726562 C 20.530584 7.7909549 20.662775 7.6410187 20.794922 7.5253906 C 20.943587 7.3932442 21.158642 7.328125 21.439453 7.328125 L 22.503906 7.328125 C 22.652571 7.328125 22.77589 7.386325 22.875 7.5019531 C 22.990628 7.6010629 23.048828 7.7243822 23.048828 7.8730469 C 23.048828 7.9556384 23.024164 8.0473746 22.974609 8.1464844 L 17.449219 15.876953 L 23.271484 23.853516 C 23.321039 23.936107 23.345703 24.027843 23.345703 24.126953 C 23.345703 24.275618 23.289456 24.407809 23.173828 24.523438 C 23.074718 24.622547 22.949446 24.671875 22.800781 24.671875 L 21.636719 24.671875 C 21.355908 24.671875 21.149725 24.622547 21.017578 24.523438 C 20.885432 24.424328 20.75324 24.283264 20.621094 24.101562 L 15.962891 17.708984 L 11.304688 24.101562 C 11.172541 24.283264 11.04035 24.424328 10.908203 24.523438 C 10.776057 24.622547 10.569874 24.671875 10.289062 24.671875 L 9.2226562 24.671875 C 9.0739915 24.671875 8.9418 24.622547 8.8261719 24.523438 C 8.7270621 24.407809 8.6777344 24.275618 8.6777344 24.126953 C 8.6777344 24.027843 8.7023982 23.936107 8.7519531 23.853516 L 14.599609 15.826172 L 9 8.1464844 C 8.9504451 8.0473746 8.9257812 7.9556384 8.9257812 7.8730469 C 8.9257812 7.7243822 8.9751089 7.6010629 9.0742188 7.5019531 C 9.1898469 7.386325 9.3220384 7.328125 9.4707031 7.328125 z "
       transform="matrix(0.26458333,0,0,0.26458333,0,288.53332)"
       id="path819" />
  </g>
</svg>
