<?xml version="1.0" encoding="UTF-8" standalone="no"?>
<svg
   xmlns:dc="http://purl.org/dc/elements/1.1/"
   xmlns:cc="http://creativecommons.org/ns#"
   xmlns:rdf="http://www.w3.org/1999/02/22-rdf-syntax-ns#"
   xmlns:svg="http://www.w3.org/2000/svg"
   xmlns="http://www.w3.org/2000/svg"
   xmlns:sodipodi="http://sodipodi.sourceforge.net/DTD/sodipodi-0.dtd"
   xmlns:inkscape="http://www.inkscape.org/namespaces/inkscape"
   width="32"
   height="32"
   viewBox="0 0 8.4666665 8.4666669"
   version="1.1"
   id="svg8"
   inkscape:version="1.0.1 (3bc2e813f5, 2020-09-07)"
   sodipodi:docname="btnXBRT.svg">
  <defs
     id="defs2" />
  <sodipodi:namedview
     id="base"
     pagecolor="#ffffff"
     bordercolor="#666666"
     borderopacity="1.0"
     inkscape:pageopacity="0.0"
     inkscape:pageshadow="2"
     inkscape:zoom="15.839192"
     inkscape:cx="26.259227"
     inkscape:cy="19.884777"
     inkscape:document-units="mm"
     inkscape:current-layer="layer1"
     showgrid="true"
     units="px"
     inkscape:window-width="1920"
     inkscape:window-height="1043"
     inkscape:window-x="2560"
     inkscape:window-y="0"
     inkscape:window-maximized="1"
     borderlayer="true"
     inkscape:document-rotation="0">
    <inkscape:grid
       type="xygrid"
       id="grid815"
       empspacing="4" />
    <inkscape:grid
       type="xygrid"
       id="grid817"
       empspacing="1"
       originy="0.13229167"
       originx="0.13229167"
       dotted="true" />
  </sodipodi:namedview>
  <metadata
     id="metadata5">
    <rdf:RDF>
      <cc:Work
         rdf:about="">
        <dc:format>image/svg+xml</dc:format>
        <dc:type
           rdf:resource="http://purl.org/dc/dcmitype/StillImage" />
        <dc:title></dc:title>
      </cc:Work>
    </rdf:RDF>
  </metadata>
  <g
     inkscape:label="Layer 1"
     inkscape:groupmode="layer"
     id="layer1"
     transform="translate(0,-288.53332)">
    <path
       id="rect12444"
       style="fill:#000000;fill-opacity:1;stroke:none;stroke-width:0.999999;stroke-linecap:round;stroke-linejoin:round;stroke-miterlimit:4;stroke-dasharray:none;stroke-opacity:1"
       d="M 8 0 L 8 24 A 7.9999722 7.9999979 0 0 0 16 32 L 24 32 L 24 0 L 8 0 z M 9.3300781 11.544922 L 12.537109 11.544922 C 13.419616 11.544922 14.14954 11.774217 14.726562 12.232422 C 15.312072 12.690652 15.605469 13.361621 15.605469 14.244141 C 15.605469 14.838131 15.468806 15.342015 15.197266 15.757812 C 15.010582 16.029359 14.791679 16.255402 14.537109 16.433594 C 14.579538 16.467609 14.621637 16.501392 14.664062 16.535156 C 15.249572 16.993386 15.541016 17.676016 15.541016 18.583984 L 15.541016 20.111328 C 15.541016 20.204556 15.507338 20.285484 15.439453 20.353516 C 15.371568 20.421295 15.290607 20.455078 15.197266 20.455078 L 14.675781 20.455078 C 14.58244 20.455078 14.501479 20.421295 14.433594 20.353516 C 14.365708 20.285736 14.332031 20.204808 14.332031 20.111328 L 14.332031 18.544922 C 14.332031 17.509684 13.691488 16.992188 12.410156 16.992188 L 10.195312 16.992188 L 10.195312 20.111328 C 10.195312 20.204556 10.161635 20.285484 10.09375 20.353516 C 10.025865 20.421295 9.9449042 20.455078 9.8515625 20.455078 L 9.3300781 20.455078 C 9.2367364 20.455078 9.155776 20.421295 9.0878906 20.353516 C 9.0200053 20.285736 8.9863281 20.204808 8.9863281 20.111328 L 8.9863281 11.888672 C 8.9863281 11.795444 9.0200053 11.714516 9.0878906 11.646484 C 9.155776 11.578705 9.2367364 11.544922 9.3300781 11.544922 z M 16.699219 11.544922 L 22.669922 11.544922 C 22.763264 11.544922 22.844224 11.578705 22.912109 11.646484 C 22.979995 11.714264 23.013672 11.795192 23.013672 11.888672 L 23.013672 12.347656 C 23.013672 12.441137 22.979995 12.520111 22.912109 12.587891 C 22.844224 12.65567 22.763264 12.691406 22.669922 12.691406 L 20.289062 12.691406 L 20.289062 20.111328 C 20.289062 20.204556 20.255385 20.285484 20.1875 20.353516 C 20.119615 20.421295 20.038654 20.455078 19.945312 20.455078 L 19.423828 20.455078 C 19.330486 20.455078 19.249526 20.421295 19.181641 20.353516 C 19.113755 20.285736 19.080078 20.204808 19.080078 20.111328 L 19.080078 12.691406 L 16.699219 12.691406 C 16.605877 12.691406 16.52687 12.65567 16.458984 12.587891 C 16.391099 12.520111 16.355469 12.441137 16.355469 12.347656 L 16.355469 11.888672 C 16.355469 11.795444 16.391099 11.714516 16.458984 11.646484 C 16.52687 11.578705 16.605877 11.544922 16.699219 11.544922 z M 10.195312 12.691406 L 10.195312 15.847656 L 12.474609 15.847656 C 13.102547 15.847656 13.577936 15.711 13.900391 15.439453 C 14.231331 15.167932 14.396484 14.770251 14.396484 14.244141 C 14.396484 13.208878 13.755942 12.691406 12.474609 12.691406 L 10.195312 12.691406 z "
       transform="matrix(0.26458333,0,0,0.26458333,0,288.53332)" />
  </g>
</svg>
