<?xml version="1.0" encoding="UTF-8" standalone="no"?>
<svg
   xmlns:dc="http://purl.org/dc/elements/1.1/"
   xmlns:cc="http://creativecommons.org/ns#"
   xmlns:rdf="http://www.w3.org/1999/02/22-rdf-syntax-ns#"
   xmlns:svg="http://www.w3.org/2000/svg"
   xmlns="http://www.w3.org/2000/svg"
   xmlns:sodipodi="http://sodipodi.sourceforge.net/DTD/sodipodi-0.dtd"
   xmlns:inkscape="http://www.inkscape.org/namespaces/inkscape"
   width="32"
   height="32"
   viewBox="0 0 8.4666665 8.4666669"
   version="1.1"
   id="svg8"
   inkscape:version="1.0.1 (3bc2e813f5, 2020-09-07)"
   sodipodi:docname="btnXBRB.svg">
  <defs
     id="defs2" />
  <sodipodi:namedview
     id="base"
     pagecolor="#ffffff"
     bordercolor="#666666"
     borderopacity="1.0"
     inkscape:pageopacity="0.0"
     inkscape:pageshadow="2"
     inkscape:zoom="22.4"
     inkscape:cx="21.014022"
     inkscape:cy="15.063231"
     inkscape:document-units="mm"
     inkscape:current-layer="layer1"
     showgrid="true"
     units="px"
     inkscape:window-width="1920"
     inkscape:window-height="1043"
     inkscape:window-x="2560"
     inkscape:window-y="0"
     inkscape:window-maximized="1"
     borderlayer="true"
     inkscape:document-rotation="0">
    <inkscape:grid
       type="xygrid"
       id="grid815"
       empspacing="4" />
    <inkscape:grid
       type="xygrid"
       id="grid817"
       empspacing="1"
       originy="0.13229167"
       originx="0.13229167"
       dotted="true" />
  </sodipodi:namedview>
  <metadata
     id="metadata5">
    <rdf:RDF>
      <cc:Work
         rdf:about="">
        <dc:format>image/svg+xml</dc:format>
        <dc:type
           rdf:resource="http://purl.org/dc/dcmitype/StillImage" />
        <dc:title></dc:title>
      </cc:Work>
    </rdf:RDF>
  </metadata>
  <g
     inkscape:label="Layer 1"
     inkscape:groupmode="layer"
     id="layer1"
     transform="translate(0,-288.53332)">
    <path
       id="rect12444"
       style="fill:#000000;fill-opacity:1;stroke:none;stroke-width:0.999999;stroke-linecap:round;stroke-linejoin:round;stroke-miterlimit:4;stroke-dasharray:none;stroke-opacity:1"
       d="M 0 8 L 0 24 L 32 24 L 32 16 A 7.9999979 7.9999722 0 0 0 24 8 L 0 8 z M 7.8066406 10.90625 L 11.474609 10.90625 C 12.483609 10.90625 13.316833 11.169441 13.976562 11.693359 C 14.645995 12.217252 14.980469 12.98318 14.980469 13.992188 C 14.980469 14.671317 14.826086 15.247267 14.515625 15.722656 C 14.302182 16.033132 14.050823 16.290399 13.759766 16.494141 L 13.904297 16.611328 C 14.57373 17.135221 14.908203 17.916968 14.908203 18.955078 L 14.908203 20.701172 C 14.908203 20.807755 14.870585 20.898705 14.792969 20.976562 C 14.715352 21.054169 14.622346 21.09375 14.515625 21.09375 L 13.917969 21.09375 C 13.811247 21.09375 13.720195 21.054169 13.642578 20.976562 C 13.564962 20.898957 13.525391 20.808007 13.525391 20.701172 L 13.525391 18.910156 C 13.525391 17.726534 12.793115 17.134766 11.328125 17.134766 L 8.796875 17.134766 L 8.796875 20.701172 C 8.796875 20.807755 8.7573039 20.898705 8.6796875 20.976562 C 8.6020711 21.054169 8.5110181 21.09375 8.4042969 21.09375 L 7.8066406 21.09375 C 7.6999194 21.09375 7.6069133 21.054169 7.5292969 20.976562 C 7.4516805 20.898957 7.4140625 20.808007 7.4140625 20.701172 L 7.4140625 11.298828 C 7.4140625 11.191993 7.4516805 11.101043 7.5292969 11.023438 C 7.6069133 10.945831 7.6999194 10.90625 7.8066406 10.90625 z M 17.28125 10.90625 L 21.181641 10.90625 C 21.948092 10.90625 22.567574 11.056647 23.042969 11.357422 C 23.518363 11.648471 23.85876 12.002738 24.0625 12.419922 C 24.266239 12.837106 24.367188 13.244795 24.367188 13.642578 C 24.367187 14.185873 24.236561 14.627219 23.974609 14.966797 C 23.712657 15.296649 23.455375 15.538122 23.203125 15.693359 C 23.610606 15.965007 23.941109 16.315302 24.193359 16.742188 C 24.455311 17.159371 24.585937 17.624455 24.585938 18.138672 C 24.585937 18.643163 24.459281 19.124091 24.207031 19.580078 C 23.964484 20.026365 23.602283 20.390502 23.117188 20.671875 C 22.632091 20.953223 22.054198 21.09375 21.384766 21.09375 L 17.28125 21.09375 C 17.174529 21.09375 17.081523 21.054169 17.003906 20.976562 C 16.92629 20.898957 16.888672 20.808007 16.888672 20.701172 L 16.888672 11.298828 C 16.888672 11.191993 16.92629 11.101043 17.003906 11.023438 C 17.081523 10.945831 17.174529 10.90625 17.28125 10.90625 z M 8.796875 12.216797 L 8.796875 15.826172 L 11.400391 15.826172 C 12.118333 15.826172 12.662577 15.669851 13.03125 15.359375 C 13.409625 15.048925 13.599609 14.593711 13.599609 13.992188 C 13.599609 12.80854 12.865381 12.216797 11.400391 12.216797 L 8.796875 12.216797 z M 18.269531 12.216797 L 18.269531 15.15625 L 21.035156 15.15625 C 21.675483 15.15625 22.160369 15.029615 22.490234 14.777344 C 22.8201 14.525098 22.986328 14.160936 22.986328 13.685547 C 22.986328 13.210158 22.8201 12.845996 22.490234 12.59375 C 22.160369 12.341479 21.675483 12.216797 21.035156 12.216797 L 18.269531 12.216797 z M 18.269531 16.464844 L 18.269531 19.783203 L 21.238281 19.783203 C 21.859204 19.783203 22.34012 19.628835 22.679688 19.318359 C 23.028956 18.998208 23.203125 18.60436 23.203125 18.138672 C 23.203125 17.663283 23.03885 17.265489 22.708984 16.945312 C 22.379119 16.625162 21.88831 16.464844 21.238281 16.464844 L 18.269531 16.464844 z "
       transform="matrix(0.26458333,0,0,0.26458333,0,288.53332)" />
  </g>
</svg>
