<?xml version="1.0" encoding="UTF-8" standalone="no"?>
<svg
   xmlns:dc="http://purl.org/dc/elements/1.1/"
   xmlns:cc="http://creativecommons.org/ns#"
   xmlns:rdf="http://www.w3.org/1999/02/22-rdf-syntax-ns#"
   xmlns:svg="http://www.w3.org/2000/svg"
   xmlns="http://www.w3.org/2000/svg"
   xmlns:sodipodi="http://sodipodi.sourceforge.net/DTD/sodipodi-0.dtd"
   xmlns:inkscape="http://www.inkscape.org/namespaces/inkscape"
   width="32"
   height="32"
   viewBox="0 0 8.4666665 8.4666669"
   version="1.1"
   id="svg8"
   inkscape:version="1.0.1 (3bc2e813f5, 2020-09-07)"
   sodipodi:docname="btnXBLB.svg">
  <defs
     id="defs2" />
  <sodipodi:namedview
     id="base"
     pagecolor="#ffffff"
     bordercolor="#666666"
     borderopacity="1.0"
     inkscape:pageopacity="0.0"
     inkscape:pageshadow="2"
     inkscape:zoom="22.4"
     inkscape:cx="21.014022"
     inkscape:cy="15.063231"
     inkscape:document-units="mm"
     inkscape:current-layer="layer1"
     showgrid="true"
     units="px"
     inkscape:window-width="1920"
     inkscape:window-height="1043"
     inkscape:window-x="2560"
     inkscape:window-y="0"
     inkscape:window-maximized="1"
     borderlayer="true"
     inkscape:document-rotation="0">
    <inkscape:grid
       type="xygrid"
       id="grid815"
       empspacing="4" />
    <inkscape:grid
       type="xygrid"
       id="grid817"
       empspacing="1"
       originy="0.13229167"
       originx="0.13229167"
       dotted="true" />
  </sodipodi:namedview>
  <metadata
     id="metadata5">
    <rdf:RDF>
      <cc:Work
         rdf:about="">
        <dc:format>image/svg+xml</dc:format>
        <dc:type
           rdf:resource="http://purl.org/dc/dcmitype/StillImage" />
        <dc:title></dc:title>
      </cc:Work>
    </rdf:RDF>
  </metadata>
  <g
     inkscape:label="Layer 1"
     inkscape:groupmode="layer"
     id="layer1"
     transform="translate(0,-288.53332)">
    <path
       id="rect12444"
       style="fill:#000000;fill-opacity:1;stroke:none;stroke-width:0.999999;stroke-linecap:round;stroke-linejoin:round;stroke-miterlimit:4;stroke-dasharray:none;stroke-opacity:1"
       d="M 8 8 A 7.9999979 7.9999722 0 0 0 0 16 L 0 24 L 32 24 L 32 8 L 8 8 z M 8.4257812 10.90625 L 9.0214844 10.90625 C 9.1282056 10.90625 9.2212117 10.945831 9.2988281 11.023438 C 9.3764445 11.101043 9.4140625 11.191993 9.4140625 11.298828 L 9.4140625 19.783203 L 14.347656 19.783203 C 14.454378 19.783203 14.547384 19.822784 14.625 19.900391 C 14.702616 19.977997 14.740234 20.0709 14.740234 20.177734 L 14.740234 20.701172 C 14.740234 20.807755 14.702616 20.898705 14.625 20.976562 C 14.547384 21.054169 14.454378 21.09375 14.347656 21.09375 L 8.4257812 21.09375 C 8.3190601 21.09375 8.2260539 21.054169 8.1484375 20.976562 C 8.0708211 20.898957 8.0332031 20.808007 8.0332031 20.701172 L 8.0332031 11.298828 C 8.0332031 11.191993 8.0708211 11.101043 8.1484375 11.023438 C 8.2260539 10.945831 8.3190601 10.90625 8.4257812 10.90625 z M 16.662109 10.90625 L 20.5625 10.90625 C 21.328952 10.90625 21.950387 11.056647 22.425781 11.357422 C 22.901175 11.648471 23.239619 12.002738 23.443359 12.419922 C 23.647099 12.837106 23.75 13.244795 23.75 13.642578 C 23.75 14.185873 23.619374 14.627219 23.357422 14.966797 C 23.09547 15.296649 22.838186 15.538122 22.585938 15.693359 C 22.993417 15.965007 23.321969 16.315302 23.574219 16.742188 C 23.836171 17.159371 23.966797 17.624455 23.966797 18.138672 C 23.966797 18.643163 23.842094 19.124091 23.589844 19.580078 C 23.347296 20.026365 22.983144 20.390502 22.498047 20.671875 C 22.012951 20.953223 21.435057 21.09375 20.765625 21.09375 L 16.662109 21.09375 C 16.555388 21.09375 16.462379 21.054169 16.384766 20.976562 C 16.307149 20.898957 16.269531 20.808007 16.269531 20.701172 L 16.269531 11.298828 C 16.269531 11.191993 16.307149 11.101043 16.384766 11.023438 C 16.462382 10.945831 16.555391 10.90625 16.662109 10.90625 z M 17.652344 12.216797 L 17.652344 15.15625 L 20.416016 15.15625 C 21.056342 15.15625 21.543182 15.029615 21.873047 14.777344 C 22.202912 14.525098 22.367188 14.160936 22.367188 13.685547 C 22.367188 13.210158 22.202912 12.845996 21.873047 12.59375 C 21.543182 12.341479 21.056342 12.216797 20.416016 12.216797 L 17.652344 12.216797 z M 17.652344 16.464844 L 17.652344 19.783203 L 20.621094 19.783203 C 21.242017 19.783203 21.72098 19.628835 22.060547 19.318359 C 22.409816 18.998208 22.585937 18.60436 22.585938 18.138672 C 22.585938 17.663283 22.419709 17.265489 22.089844 16.945312 C 21.759978 16.625162 21.271122 16.464844 20.621094 16.464844 L 17.652344 16.464844 z "
       transform="matrix(0.26458333,0,0,0.26458333,0,288.53332)" />
  </g>
</svg>
