<?xml version="1.0" encoding="UTF-8" standalone="no"?>
<svg
   xmlns:dc="http://purl.org/dc/elements/1.1/"
   xmlns:cc="http://creativecommons.org/ns#"
   xmlns:rdf="http://www.w3.org/1999/02/22-rdf-syntax-ns#"
   xmlns:svg="http://www.w3.org/2000/svg"
   xmlns="http://www.w3.org/2000/svg"
   xmlns:sodipodi="http://sodipodi.sourceforge.net/DTD/sodipodi-0.dtd"
   xmlns:inkscape="http://www.inkscape.org/namespaces/inkscape"
   width="32"
   height="32"
   viewBox="0 0 8.4666665 8.4666669"
   version="1.1"
   id="svg8"
   inkscape:version="1.0.1 (3bc2e813f5, 2020-09-07)"
   sodipodi:docname="btnXBLT.svg">
  <defs
     id="defs2" />
  <sodipodi:namedview
     id="base"
     pagecolor="#ffffff"
     bordercolor="#666666"
     borderopacity="1.0"
     inkscape:pageopacity="0.0"
     inkscape:pageshadow="2"
     inkscape:zoom="15.839192"
     inkscape:cx="26.259227"
     inkscape:cy="19.884777"
     inkscape:document-units="mm"
     inkscape:current-layer="layer1"
     showgrid="true"
     units="px"
     inkscape:window-width="1920"
     inkscape:window-height="1043"
     inkscape:window-x="2560"
     inkscape:window-y="0"
     inkscape:window-maximized="1"
     borderlayer="true"
     inkscape:document-rotation="0">
    <inkscape:grid
       type="xygrid"
       id="grid815"
       empspacing="4" />
    <inkscape:grid
       type="xygrid"
       id="grid817"
       empspacing="1"
       originy="0.13229167"
       originx="0.13229167"
       dotted="true" />
  </sodipodi:namedview>
  <metadata
     id="metadata5">
    <rdf:RDF>
      <cc:Work
         rdf:about="">
        <dc:format>image/svg+xml</dc:format>
        <dc:type
           rdf:resource="http://purl.org/dc/dcmitype/StillImage" />
        <dc:title></dc:title>
      </cc:Work>
    </rdf:RDF>
  </metadata>
  <g
     inkscape:label="Layer 1"
     inkscape:groupmode="layer"
     id="layer1"
     transform="translate(0,-288.53332)">
    <path
       id="rect12444"
       style="fill:#000000;fill-opacity:1;stroke:none;stroke-width:0.999999;stroke-linecap:round;stroke-linejoin:round;stroke-miterlimit:4;stroke-dasharray:none;stroke-opacity:1"
       d="M 8 0 L 8 32 L 16 32 A 7.9999722 7.9999979 0 0 0 24 24 L 24 0 L 8 0 z M 10.572266 11.544922 L 11.09375 11.544922 C 11.187092 11.544922 11.268052 11.578705 11.335938 11.646484 C 11.403822 11.714264 11.4375 11.795192 11.4375 11.888672 L 11.4375 19.308594 L 15.751953 19.308594 C 15.845295 19.308594 15.926255 19.342377 15.994141 19.410156 C 16.062026 19.477936 16.095703 19.558863 16.095703 19.652344 L 16.095703 20.111328 C 16.095703 20.204556 16.062026 20.285484 15.994141 20.353516 C 15.926255 20.421295 15.845295 20.455078 15.751953 20.455078 L 10.572266 20.455078 C 10.478924 20.455078 10.397963 20.421295 10.330078 20.353516 C 10.262193 20.285736 10.228516 20.204808 10.228516 20.111328 L 10.228516 11.888672 C 10.228516 11.795444 10.262193 11.714516 10.330078 11.646484 C 10.397963 11.578705 10.478924 11.544922 10.572266 11.544922 z M 15.458984 11.544922 L 21.427734 11.544922 C 21.521076 11.544922 21.602037 11.578705 21.669922 11.646484 C 21.737807 11.714264 21.771484 11.795192 21.771484 11.888672 L 21.771484 12.347656 C 21.771484 12.441137 21.737807 12.520111 21.669922 12.587891 C 21.602037 12.65567 21.521076 12.691406 21.427734 12.691406 L 19.048828 12.691406 L 19.048828 20.111328 C 19.048828 20.204556 19.015151 20.285484 18.947266 20.353516 C 18.87938 20.421295 18.79842 20.455078 18.705078 20.455078 L 18.183594 20.455078 C 18.090252 20.455078 18.009292 20.421295 17.941406 20.353516 C 17.873521 20.285736 17.839844 20.204808 17.839844 20.111328 L 17.839844 12.691406 L 15.458984 12.691406 C 15.365643 12.691406 15.284682 12.65567 15.216797 12.587891 C 15.148912 12.520111 15.115234 12.441137 15.115234 12.347656 L 15.115234 11.888672 C 15.115234 11.795444 15.148912 11.714516 15.216797 11.646484 C 15.284682 11.578705 15.365643 11.544922 15.458984 11.544922 z "
       transform="matrix(0.26458333,0,0,0.26458333,0,288.53332)" />
  </g>
</svg>
